<?xml version="1.0" standalone="no"?>
<!DOCTYPE svg PUBLIC "-//W3C//DTD SVG 20010904//EN"
 "http://www.w3.org/TR/2001/REC-SVG-20010904/DTD/svg10.dtd">
<svg version="1.0" xmlns="http://www.w3.org/2000/svg"
 width="700.000000pt" height="700.000000pt" viewBox="0 0 700.000000 700.000000"
 preserveAspectRatio="xMidYMid meet">
<metadata>
Created by potrace 1.14, written by Peter Selinger 2001-2017
</metadata>
<g transform="translate(0.000000,700.000000) scale(0.100000,-0.100000)"
fill="#000000" stroke="none">
<path d="M3415 6982 c-77 -36 -106 -82 -242 -382 -14 -30 -45 -98 -70 -150
-25 -52 -71 -151 -103 -220 -32 -69 -80 -172 -108 -230 -27 -58 -61 -130 -75
-160 -13 -30 -48 -104 -77 -165 -61 -128 -105 -222 -223 -475 -34 -74 -92
-197 -148 -317 -31 -64 -31 -65 -119 -78 -19 -3 -46 -7 -60 -10 -14 -2 -45 -7
-70 -10 -25 -4 -85 -13 -135 -20 -49 -8 -108 -17 -130 -20 -22 -3 -65 -10 -95
-15 -30 -5 -75 -12 -100 -15 -25 -4 -88 -13 -140 -21 -52 -9 -108 -17 -125
-20 -43 -5 -96 -13 -125 -19 -14 -2 -41 -6 -60 -9 -74 -10 -136 -19 -155 -22
-31 -6 -135 -22 -185 -29 -25 -3 -52 -8 -60 -10 -8 -2 -40 -7 -70 -10 -30 -3
-62 -8 -70 -10 -8 -2 -35 -7 -60 -10 -25 -3 -74 -11 -110 -16 -36 -5 -76 -12
-90 -14 -14 -2 -45 -7 -70 -11 -25 -4 -54 -8 -65 -10 -93 -13 -114 -18 -140
-29 -84 -34 -140 -124 -132 -209 2 -28 11 -67 20 -86 8 -19 75 -96 149 -171
73 -75 218 -224 322 -330 104 -107 332 -340 506 -519 175 -179 352 -361 395
-405 42 -44 113 -116 156 -161 76 -78 78 -82 69 -115 -5 -19 -11 -54 -14 -79
-3 -25 -8 -55 -10 -66 -2 -12 -7 -39 -11 -60 -3 -22 -8 -50 -10 -64 -7 -39
-36 -221 -41 -255 -3 -16 -9 -55 -14 -85 -5 -30 -12 -68 -14 -85 -3 -16 -19
-115 -36 -220 -17 -104 -33 -201 -35 -215 -2 -14 -15 -92 -29 -175 -14 -82
-28 -172 -31 -200 -4 -27 -10 -66 -15 -85 -5 -19 -11 -55 -14 -80 -6 -44 -11
-74 -21 -135 -3 -16 -8 -48 -11 -70 -4 -22 -19 -114 -34 -204 -15 -90 -26
-181 -25 -202 7 -83 66 -158 148 -185 79 -26 141 -12 267 65 19 11 42 24 50
28 8 4 116 63 240 131 124 69 250 138 280 155 30 16 118 65 195 107 77 43 158
88 180 99 22 12 47 26 55 31 18 12 525 290 635 350 44 23 85 46 90 50 6 4 31
19 58 34 l47 26 168 -93 c92 -52 203 -113 247 -137 44 -23 94 -51 110 -60 23
-14 699 -387 1035 -573 30 -16 116 -64 190 -105 204 -114 233 -126 295 -119
141 14 224 132 195 276 -5 25 -12 64 -15 86 -3 22 -21 134 -40 250 -19 116
-36 226 -39 245 -6 36 -13 77 -21 120 -3 14 -7 43 -11 65 -3 22 -28 175 -55
340 -27 165 -52 316 -55 335 -3 19 -7 46 -9 60 -3 14 -7 41 -10 60 -3 19 -10
60 -15 90 -5 30 -12 75 -15 100 -3 25 -8 52 -10 60 -2 8 -14 74 -25 145 -24
155 -29 187 -39 241 l-8 41 180 184 c385 395 534 548 853 875 182 186 377 386
434 444 141 144 155 167 155 249 0 81 -24 133 -83 178 -39 30 -83 43 -187 58
-22 3 -51 7 -65 10 -14 3 -41 7 -60 9 -35 5 -222 33 -272 41 -16 3 -40 7 -55
10 -16 2 -48 7 -72 10 -46 5 -91 12 -131 20 -14 3 -45 7 -70 10 -25 3 -56 7
-70 10 -30 6 -31 6 -280 44 -107 17 -244 37 -305 46 -60 9 -121 18 -135 20
-48 8 -155 25 -195 30 -22 4 -80 13 -130 20 -49 8 -108 16 -130 19 -92 13 -89
11 -133 104 -22 48 -69 146 -102 217 -34 72 -75 157 -90 190 -27 59 -76 163
-150 320 -21 44 -54 116 -75 160 -21 44 -58 123 -82 175 -99 210 -112 238
-146 310 -42 90 -114 244 -155 331 -153 324 -157 330 -221 363 -51 27 -139 30
-186 8z m247 -1062 c22 -47 58 -123 80 -169 21 -46 57 -122 80 -170 22 -47 58
-122 78 -166 21 -44 68 -145 105 -225 37 -80 96 -205 131 -278 35 -74 64 -135
64 -137 0 -1 29 -63 64 -137 103 -216 105 -218 346 -254 58 -8 116 -17 130
-19 14 -2 68 -10 120 -18 52 -9 113 -18 135 -22 22 -3 81 -12 130 -20 50 -7
110 -16 135 -20 25 -3 70 -10 100 -15 30 -5 105 -17 165 -25 61 -9 121 -18
135 -20 14 -2 54 -9 90 -14 36 -6 83 -13 105 -17 22 -3 49 -7 60 -9 75 -9 126
-17 165 -25 49 -10 110 -19 180 -26 80 -9 139 62 -519 -612 -174 -178 -356
-365 -405 -415 -48 -51 -152 -157 -231 -238 -78 -80 -150 -160 -159 -178 -25
-47 -26 -112 -5 -236 11 -61 21 -123 23 -140 2 -16 9 -59 16 -95 19 -108 20
-113 25 -160 3 -25 10 -65 15 -90 8 -38 18 -103 26 -160 1 -8 4 -28 7 -45 3
-16 8 -46 11 -65 3 -19 14 -89 25 -155 11 -66 23 -137 27 -159 3 -21 7 -46 9
-55 1 -9 8 -52 15 -96 7 -44 14 -89 16 -100 2 -11 6 -31 8 -45 5 -23 8 -45 21
-137 3 -21 10 -58 15 -83 5 -25 12 -67 15 -95 3 -27 8 -59 10 -70 3 -11 7 -32
9 -47 l5 -28 -32 17 c-18 9 -132 72 -255 140 -122 68 -266 148 -320 177 -53
29 -230 126 -392 216 -162 89 -320 176 -350 193 -30 16 -59 33 -65 37 -12 8
-172 95 -228 123 -44 22 -118 29 -162 14 -16 -6 -176 -91 -355 -190 -179 -99
-343 -190 -365 -202 -22 -12 -193 -106 -380 -210 -540 -299 -569 -314 -572
-311 -2 1 2 27 7 57 10 54 12 64 25 149 4 25 9 54 11 65 2 11 6 36 9 55 5 33
7 50 21 130 3 19 8 44 9 55 25 150 36 216 41 249 3 21 7 48 10 59 2 12 6 39 9
62 10 70 26 161 39 230 2 11 7 40 10 65 3 25 8 56 11 70 3 14 7 39 9 55 3 17
16 102 31 189 14 87 29 177 32 200 3 23 13 85 23 139 21 114 19 181 -5 228
-10 18 -84 101 -165 184 -81 82 -183 187 -226 232 -44 44 -224 229 -400 410
-400 408 -578 593 -582 602 -1 4 10 8 25 9 16 1 53 6 83 12 30 5 75 12 100 15
25 3 56 7 70 10 14 2 41 7 60 10 19 3 46 7 60 10 14 2 45 7 70 10 25 3 52 8
60 10 8 2 42 7 75 10 32 4 62 8 65 10 3 1 32 6 65 10 32 3 62 8 65 10 3 1 32
6 65 10 32 3 62 8 65 10 3 2 34 6 70 10 36 4 67 8 70 10 3 2 30 6 60 10 30 4
57 8 60 10 3 2 32 6 65 9 33 4 67 9 75 11 8 2 35 7 60 10 25 3 56 8 70 10 14
2 70 11 125 20 243 37 282 44 310 55 68 26 86 56 274 454 28 59 51 110 51 111
0 2 31 68 69 147 37 78 78 166 91 193 29 65 156 336 231 494 33 68 59 125 59
127 0 1 29 64 65 139 36 75 65 140 65 144 0 4 5 12 12 19 8 8 26 -19 71 -116
32 -70 77 -165 99 -212z"/>
<path d="M2354 3930 c-169 -38 -222 -268 -88 -379 57 -46 90 -51 370 -51 l259
0 50 28 c70 39 106 93 112 173 4 57 2 70 -24 119 -21 40 -42 63 -78 85 l-48
30 -261 1 c-144 1 -275 -2 -292 -6z"/>
<path d="M4098 3929 c-160 -44 -212 -258 -91 -370 60 -56 93 -61 389 -57 l271
3 43 30 c66 46 94 95 98 174 4 87 -30 151 -102 196 l-49 30 -266 1 c-146 0
-278 -3 -293 -7z"/>
<path d="M2546 3265 c-81 -29 -137 -113 -139 -211 -1 -43 9 -150 18 -194 11
-54 16 -72 35 -135 19 -62 121 -272 139 -285 3 -3 26 -31 50 -63 128 -168 349
-311 576 -373 91 -25 116 -27 275 -27 160 -1 183 2 275 27 345 94 609 328 739
654 21 51 39 103 41 115 3 12 8 36 12 52 4 17 7 32 8 35 1 3 5 34 9 70 14 106
10 184 -12 227 -86 167 -325 161 -397 -10 -8 -20 -17 -68 -20 -106 -13 -192
-72 -323 -204 -451 -202 -196 -508 -237 -765 -102 -131 69 -258 218 -306 361
-23 68 -27 90 -36 196 -3 45 -14 96 -24 116 -51 98 -167 142 -274 104z"/>
</g>
</svg>
